<svg preserveAspectRatio="none" overflow="visible" style="display: block;" width="20" height="20" viewBox="0 0 20 20" fill="none" xmlns="http://www.w3.org/2000/svg">
<g id="edit-02">
<path id="Vector" d="M11.7281 3.23787C12.3491 2.56507 12.6596 2.22867 12.9895 2.03244C13.7856 1.55897 14.7659 1.54424 15.5753 1.9936C15.9107 2.17983 16.2308 2.50677 16.8708 3.16063C17.5109 3.8145 17.831 4.14143 18.0133 4.48411C18.4532 5.31093 18.4387 6.31233 17.9752 7.12558C17.7832 7.46263 17.4538 7.77982 16.7953 8.41417L8.95883 15.9619C7.71073 17.1641 7.08667 17.7652 6.30672 18.0698C5.52677 18.3744 4.66933 18.352 2.95447 18.3072L2.72115 18.3011C2.19909 18.2874 1.93806 18.2806 1.78632 18.1083C1.63458 17.9362 1.6553 17.6703 1.69673 17.1385L1.71923 16.8498C1.83584 15.3529 1.89414 14.6046 2.18642 13.9318C2.4787 13.2591 2.98287 12.7129 3.99119 11.6204L11.7281 3.23787Z" stroke="#6A6A6A" stroke-width="1.5" stroke-linejoin="round"/>
<path id="Vector_2" d="M10.8333 3.33333L16.6667 9.16667" stroke="#6A6A6A" stroke-width="1.5" stroke-linejoin="round"/>
<path id="Vector_3" d="M11.6667 18.3333H18.3333" stroke="#6A6A6A" stroke-width="1.5" stroke-linecap="round" stroke-linejoin="round"/>
</g>
</svg>
