<svg preserveAspectRatio="none" overflow="visible" style="display: block;" width="24" height="24" viewBox="0 0 24 24" fill="none" xmlns="http://www.w3.org/2000/svg">
<g id="biscuit">
<path id="Subtract" d="M12.0002 0.950391C13.1348 0.950491 13.584 2.11183 13.2678 2.88496C13.1278 3.2277 13.05 3.60371 13.05 4.0002C13.0501 5.62935 14.371 6.95039 16.0002 6.95039C16.4061 6.95037 16.7908 6.86823 17.1398 6.72188C17.6355 6.51436 18.1238 6.64611 18.4426 6.86445C18.7603 7.08221 19.05 7.48074 19.05 8.0002C19.0501 9.07708 19.9233 9.95039 21.0002 9.95039C21.0752 9.95038 21.1489 9.94568 21.2199 9.9377C21.8999 9.86192 22.8492 10.258 23.0129 11.2092L23.0344 11.4074L23.0461 11.7023C23.0487 11.8012 23.05 11.9006 23.05 12.0002C23.0499 18.1028 18.1028 23.0499 12.0002 23.05C5.8975 23.05 0.95048 18.1028 0.950391 12.0002C0.950391 5.89745 5.89745 0.950391 12.0002 0.950391ZM15.5275 14.4611C14.4042 13.928 13.0721 14.4445 12.5109 15.5275C11.9425 16.6256 12.3292 17.9959 13.4738 18.5393C14.597 19.0717 15.9294 18.5566 16.4904 17.4738C17.0591 16.3758 16.6719 15.0047 15.5275 14.4611ZM8.0002 15.0002C7.4825 15.0004 7.05609 15.3942 7.00508 15.8986L7.0002 16.0002L7.00508 16.1027C7.05655 16.6067 7.48284 17 8.0002 17.0002C8.55185 16.9998 8.99982 16.552 9.0002 16.0002C8.99996 15.4828 8.60647 15.0566 8.10273 15.0051L8.0002 15.0002ZM8.69258 7.4709C8.06516 7.12141 7.37516 7.22093 6.83027 7.52949C6.29126 7.83492 5.8457 8.36146 5.56367 9.0002C5.28092 9.64092 5.18806 10.3357 5.29023 10.9553C5.391 11.5651 5.70186 12.1914 6.30879 12.5295C6.93606 12.8784 7.62548 12.7794 8.17012 12.4709C8.70911 12.1655 9.15568 11.6389 9.4377 11.0002C9.72031 10.3598 9.81213 9.66547 9.71016 9.04609C9.60957 8.43624 9.2994 7.80921 8.69258 7.4709ZM14.0002 10.0002C13.4824 10.0004 13.0561 10.3943 13.0051 10.8986L13.0002 11.0002L13.0051 11.1027C13.0565 11.6066 13.4828 12 14.0002 12.0002C14.5519 11.9998 14.9998 11.5519 15.0002 11.0002C15 10.4828 14.6065 10.0566 14.1027 10.0051L14.0002 10.0002Z" fill="#6A6A6A"/>
</g>
</svg>
